<svg version="1.1" id="Layer_1" xmlns="http://www.w3.org/2000/svg" xmlns:xlink="http://www.w3.org/1999/xlink" x="0px" y="0px" width="100%" viewBox="0 0 514 485" enable-background="new 0 0 514 485" xml:space="preserve">
<path fill="#000000" opacity="1.000000" stroke="none" d="
M362.000000,486.000000 
	C241.785568,486.000000 121.571144,486.000000 1.000000,486.000000 
	C1.000000,458.980164 1.000000,431.958740 1.332245,404.166779 
	C2.168314,404.139923 2.725541,404.853302 3.167094,405.632294 
	C5.636760,409.989288 7.821829,414.533203 10.592040,418.687958 
	C14.401817,424.401917 19.445032,428.395508 25.624062,432.021973 
	C32.710354,436.180969 39.966103,438.769287 47.532864,438.807068 
	C114.528870,439.141632 181.527252,439.007233 248.524902,438.961761 
	C249.946442,438.960815 251.367584,438.368561 252.748245,438.061157 
	C249.766541,433.109100 247.090515,428.803406 244.554092,424.417023 
	C241.389709,418.944611 238.374100,413.386292 235.227310,407.903534 
	C233.619370,405.101929 231.449219,403.856323 227.866776,403.889313 
	C204.702881,404.102692 181.536041,403.998627 158.370178,403.998627 
	C122.038101,403.998627 85.706001,403.974091 49.373978,404.014923 
	C39.650997,404.025848 34.973911,399.865906 34.973866,390.796478 
	C34.973545,327.799042 34.988644,264.801605 35.012730,201.804184 
	C35.013218,200.526917 35.182114,199.249710 35.284641,197.800018 
	C62.244228,197.800018 88.892914,197.800369 115.541603,197.799942 
	C209.370438,197.798447 303.199280,197.788940 397.028107,197.817245 
	C401.865540,197.818695 406.877380,197.405136 411.497528,198.497726 
	C417.707611,199.966309 423.631470,202.670441 429.648010,204.924774 
	C435.002319,206.930969 435.631592,206.562195 435.634491,200.552170 
	C435.653076,162.069748 435.817627,123.585739 435.483093,85.106171 
	C435.414001,77.157730 433.801239,69.281929 430.006104,61.829243 
	C426.380615,54.709808 420.297241,49.949093 414.618500,45.339771 
	C409.085419,40.848705 401.468140,38.829655 394.604523,36.136738 
	C392.747589,35.408165 390.300171,36.308361 388.132721,36.225716 
	C379.373505,35.891716 370.617981,35.461327 361.859802,35.097408 
	C361.616425,35.087296 361.366180,35.438438 361.106262,35.600506 
	C357.320190,37.961285 356.009827,37.384350 355.966736,33.025066 
	C355.881226,24.370720 356.103668,15.711765 355.909393,7.061212 
	C355.863708,5.027538 354.667145,3.019712 354.000000,0.999998 
	C407.618927,1.000000 461.237823,1.000000 515.000000,1.000000 
	C515.000000,111.020851 515.000000,221.041763 514.634949,331.840332 
	C512.838745,328.650726 511.102966,324.763489 510.036835,320.700470 
	C507.426086,310.751526 503.807770,301.238098 498.062775,292.696991 
	C493.310638,285.632019 488.799225,278.210632 482.959045,272.118805 
	C474.736389,263.541779 465.660065,255.705231 456.394745,248.239609 
	C452.001465,244.699661 446.494446,242.333359 441.188293,240.185715 
	C433.961334,237.260651 426.576355,234.511459 419.020081,232.665344 
	C407.800873,229.924347 396.449768,227.268845 384.733154,228.210480 
	C378.190491,228.736313 371.668365,229.571411 365.156677,230.418518 
	C350.714111,232.297348 337.313538,237.380798 324.682770,244.404312 
	C318.810516,247.669647 313.014069,251.323441 307.909027,255.656250 
	C300.576813,261.879333 293.636810,268.629578 287.053894,275.646851 
	C282.903625,280.071014 279.259583,285.130859 276.204834,290.380554 
	C272.523132,296.707642 269.500977,303.448944 266.583069,310.179901 
	C264.403687,315.207275 261.892639,320.377411 261.191132,325.702881 
	C259.383331,339.426270 255.940552,353.102631 258.515778,367.148651 
	C260.411316,377.487183 261.865082,387.912720 264.012695,398.195648 
	C264.747009,401.711517 266.988708,404.913422 268.547363,408.256104 
	C271.066864,413.659363 273.087891,419.378296 276.246399,424.378357 
	C279.822235,430.039062 284.258881,435.191254 288.615479,440.314331 
	C293.738800,446.338959 298.788300,452.523529 304.613342,457.821136 
	C308.713440,461.550018 314.257233,463.635651 318.802185,466.941895 
	C331.218201,475.973907 345.496704,480.235229 360.102692,483.823944 
	C360.867218,484.011780 361.373505,485.250519 362.000000,486.000000 
M81.336327,276.157532 
	C81.999695,276.622650 82.663063,277.087738 84.105690,277.519073 
	C118.576599,277.498810 153.047882,277.394531 187.518051,277.543427 
	C193.063889,277.567383 194.502274,277.058685 194.407196,270.585266 
	C194.311844,264.092468 194.337692,257.595947 194.433502,251.102905 
	C194.513641,245.671722 193.252808,244.281311 187.940964,244.273865 
	C154.000381,244.226212 120.059631,244.205856 86.119438,244.059875 
	C82.496483,244.044312 81.728508,245.760666 81.674789,248.856201 
	C81.554001,255.815567 81.139771,262.770325 81.054344,269.729492 
	C81.028755,271.814270 81.695602,273.907562 81.336327,276.157532 
M147.500000,358.002441 
	C163.143127,358.002441 178.786270,358.002441 194.399017,358.002441 
	C194.399017,347.823975 194.303177,338.887939 194.439911,329.955475 
	C194.507095,325.567139 192.831619,323.896698 188.299576,324.023438 
	C178.813400,324.288727 169.313171,324.020050 159.818771,324.030518 
	C135.017883,324.057922 110.216949,324.160309 85.416267,324.111908 
	C82.200577,324.105652 81.011414,325.522888 81.004539,328.422241 
	C80.985809,336.328491 81.236115,344.244720 80.908394,352.137421 
	C80.710732,356.897949 82.636505,358.108734 87.049446,358.072784 
	C106.865173,357.911224 126.682961,358.002441 147.500000,358.002441 
M194.438660,277.475525 
	C194.438660,277.475525 194.477859,277.508423 194.438660,277.475525 
z" data-index="0" style="opacity: 0; visibility: visible; fill: rgb(121, 40, 202);"></path>
<path fill="#FEFEFE" opacity="1.000000" stroke="none" d="
M353.531342,0.999998 
	C354.667145,3.019712 355.863708,5.027538 355.909393,7.061212 
	C356.103668,15.711765 355.881226,24.370720 355.966736,33.025066 
	C356.009827,37.384350 357.320190,37.961285 361.106262,35.600506 
	C361.366180,35.438438 361.616425,35.087296 361.859802,35.097408 
	C370.617981,35.461327 379.373505,35.891716 388.132721,36.225716 
	C390.300171,36.308361 392.747589,35.408165 394.604523,36.136738 
	C401.468140,38.829655 409.085419,40.848705 414.618500,45.339771 
	C420.297241,49.949093 426.380615,54.709808 430.006104,61.829243 
	C433.801239,69.281929 435.414001,77.157730 435.483093,85.106171 
	C435.817627,123.585739 435.653076,162.069748 435.634491,200.552170 
	C435.631592,206.562195 435.002319,206.930969 429.648010,204.924774 
	C423.631470,202.670441 417.707611,199.966309 411.497528,198.497726 
	C406.877380,197.405136 401.865540,197.818695 397.028107,197.817245 
	C303.199280,197.788940 209.370438,197.798447 115.541603,197.799942 
	C88.892914,197.800369 62.244228,197.800018 35.284641,197.800018 
	C35.182114,199.249710 35.013218,200.526917 35.012730,201.804184 
	C34.988644,264.801605 34.973545,327.799042 34.973866,390.796478 
	C34.973911,399.865906 39.650997,404.025848 49.373978,404.014923 
	C85.706001,403.974091 122.038101,403.998627 158.370178,403.998627 
	C181.536041,403.998627 204.702881,404.102692 227.866776,403.889313 
	C231.449219,403.856323 233.619370,405.101929 235.227310,407.903534 
	C238.374100,413.386292 241.389709,418.944611 244.554092,424.417023 
	C247.090515,428.803406 249.766541,433.109100 252.748245,438.061157 
	C251.367584,438.368561 249.946442,438.960815 248.524902,438.961761 
	C181.527252,439.007233 114.528870,439.141632 47.532864,438.807068 
	C39.966103,438.769287 32.710354,436.180969 25.624062,432.021973 
	C19.445032,428.395508 14.401817,424.401917 10.592040,418.687958 
	C7.821829,414.533203 5.636760,409.989288 3.167094,405.632294 
	C2.725541,404.853302 2.168314,404.139923 1.332245,403.698120 
	C1.000000,403.250000 1.000000,402.500000 1.197431,401.656860 
	C1.728040,401.319702 2.061216,401.075684 2.394397,400.831665 
	C1.929600,400.554443 1.464799,400.277222 0.999999,400.000000 
	C1.000000,328.645782 1.000000,257.291534 1.352645,185.558990 
	C1.470193,184.787109 1.235097,184.393555 1.000000,184.000000 
	C1.000000,182.933334 1.000000,181.866653 1.352677,180.490356 
	C1.470235,179.787140 1.235116,179.393570 0.999999,179.000000 
	C1.000000,176.958328 1.000000,174.916672 1.384722,172.507568 
	C1.512963,171.426743 1.256483,170.713379 1.000001,170.000000 
	C1.000000,168.933334 1.000000,167.866653 1.303691,166.522827 
	C1.404922,165.830460 1.202462,165.415222 1.000000,165.000000 
	C1.000000,133.979111 1.000000,102.958214 1.269260,71.776878 
	C2.534343,69.778664 3.580478,67.966141 4.517828,66.099007 
	C10.619575,53.944801 19.182268,44.184853 32.068806,39.097713 
	C37.054146,37.129684 42.270630,34.855694 48.413399,36.838684 
	C61.259895,36.901794 73.647110,36.850441 86.446762,36.863792 
	C90.474014,36.739529 94.088821,36.550560 97.000000,36.398373 
	C97.000000,24.588829 97.000000,12.794415 97.000000,1.000000 
	C108.020897,1.000000 119.041786,1.000000 130.532242,1.468657 
	C130.980606,13.249140 130.959427,24.560966 130.677292,35.967087 
	C130.620712,36.299988 130.825104,36.538593 131.437485,36.844921 
	C133.220230,36.862732 134.594955,36.812820 136.431137,36.861511 
	C157.937714,36.900684 178.982834,36.841255 200.489410,36.849533 
	C206.296814,36.874714 211.642792,36.832184 217.241577,36.879372 
	C217.664215,36.913128 217.834045,36.857159 218.453522,36.867088 
	C221.931610,36.889015 224.960052,36.845043 228.242477,36.885483 
	C228.665558,36.912971 228.834656,36.856056 229.468079,36.864590 
	C244.952072,36.886295 259.971741,36.842548 275.321411,36.892097 
	C276.099976,36.922771 276.548553,36.860153 277.453857,36.862541 
	C281.603394,36.885605 285.296173,36.843651 289.242371,36.887344 
	C289.665131,36.917114 289.834442,36.861237 290.468018,36.871666 
	C301.221863,36.937977 311.511505,36.937977 322.000000,36.937977 
	C322.000000,24.052998 322.000000,12.526499 322.000000,1.000000 
	C332.354218,1.000000 342.708466,1.000000 353.531342,0.999998 
M365.532440,70.000961 
	C362.422241,70.000961 359.312042,70.000961 355.790314,70.000961 
	C355.790314,85.933586 355.790314,101.331390 355.790314,117.271591 
	C346.074524,117.271591 336.782257,117.056549 327.507477,117.365471 
	C323.100891,117.512253 321.823853,116.095421 321.904755,111.733170 
	C322.160370,97.953552 321.999084,84.166206 321.999084,70.351791 
	C258.059662,70.351791 194.530090,70.351791 130.723419,70.351791 
	C130.723419,85.983414 130.723419,101.264587 130.723419,117.267914 
	C122.186836,117.267914 113.914993,117.285553 105.643257,117.263054 
	C97.001350,117.239555 97.000114,117.222672 96.999336,108.648361 
	C96.998177,95.871857 96.999039,83.095352 96.999039,70.005814 
	C79.568573,70.005814 62.606140,69.917633 45.645653,70.060600 
	C40.683056,70.102425 34.832069,76.856720 34.846596,81.718643 
	C34.924278,107.711754 34.954586,133.705002 35.000565,159.698212 
	C35.003654,161.445084 35.000965,163.191971 35.000965,164.499054 
	C157.995697,164.499054 280.277130,164.499054 402.541534,164.499054 
	C402.541534,139.789719 402.644257,115.302284 402.437683,90.817467 
	C402.404297,86.859367 401.369415,82.791527 400.134491,78.989761 
	C398.329956,73.434410 392.685425,69.924889 387.019318,69.983673 
	C380.187622,70.054565 373.354614,70.000778 365.532440,70.000961 
z" data-index="1" style="opacity: 1; visibility: visible;"></path>
<path fill="#FDFDFD" opacity="1.000000" stroke="none" d="
M362.468658,486.000000 
	C361.373505,485.250519 360.867218,484.011780 360.102692,483.823944 
	C345.496704,480.235229 331.218201,475.973907 318.802185,466.941895 
	C314.257233,463.635651 308.713440,461.550018 304.613342,457.821136 
	C298.788300,452.523529 293.738800,446.338959 288.615479,440.314331 
	C284.258881,435.191254 279.822235,430.039062 276.246399,424.378357 
	C273.087891,419.378296 271.066864,413.659363 268.547363,408.256104 
	C266.988708,404.913422 264.747009,401.711517 264.012695,398.195648 
	C261.865082,387.912720 260.411316,377.487183 258.515778,367.148651 
	C255.940552,353.102631 259.383331,339.426270 261.191132,325.702881 
	C261.892639,320.377411 264.403687,315.207275 266.583069,310.179901 
	C269.500977,303.448944 272.523132,296.707642 276.204834,290.380554 
	C279.259583,285.130859 282.903625,280.071014 287.053894,275.646851 
	C293.636810,268.629578 300.576813,261.879333 307.909027,255.656250 
	C313.014069,251.323441 318.810516,247.669647 324.682770,244.404312 
	C337.313538,237.380798 350.714111,232.297348 365.156677,230.418518 
	C371.668365,229.571411 378.190491,228.736313 384.733154,228.210480 
	C396.449768,227.268845 407.800873,229.924347 419.020081,232.665344 
	C426.576355,234.511459 433.961334,237.260651 441.188293,240.185715 
	C446.494446,242.333359 452.001465,244.699661 456.394745,248.239609 
	C465.660065,255.705231 474.736389,263.541779 482.959045,272.118805 
	C488.799225,278.210632 493.310638,285.632019 498.062775,292.696991 
	C503.807770,301.238098 507.426086,310.751526 510.036835,320.700470 
	C511.102966,324.763489 512.838745,328.650726 514.634949,332.308960 
	C515.000000,347.020905 515.000000,362.041779 514.663818,377.550842 
	C514.117188,378.422791 513.906738,378.806549 513.696289,379.190338 
	C514.130859,379.126892 514.565430,379.063446 515.000000,379.000000 
	C515.000000,380.066681 515.000000,381.133331 514.644409,382.291443 
	C513.323669,385.012482 512.278809,387.616150 511.409454,390.277100 
	C509.454742,396.259949 508.160217,402.537537 505.529755,408.199310 
	C502.649323,414.399261 498.075836,419.807251 495.136841,425.986816 
	C491.620331,433.380737 486.158478,439.014160 480.903778,445.030701 
	C468.990143,458.671600 454.424042,468.618683 438.171997,475.999176 
	C430.456665,479.502930 421.912231,481.167572 413.784882,483.793701 
	C412.729156,484.134827 411.922180,485.245667 411.000000,486.000000 
	C394.979095,486.000000 378.958221,486.000000 362.468658,486.000000 
M466.982483,409.374756 
	C466.989807,409.041626 466.858521,408.595978 467.024475,408.391632 
	C473.214264,400.767578 476.435272,391.669800 478.773804,382.429199 
	C480.707306,374.789215 481.746948,366.789948 482.032532,358.908203 
	C482.259857,352.634827 480.411499,346.315643 480.093292,339.986145 
	C479.639435,330.959320 475.631989,323.167908 471.897675,315.374451 
	C469.196442,309.737122 465.203613,304.719696 461.798035,299.418579 
	C457.202026,292.264465 451.306641,286.489380 444.444855,281.401093 
	C435.912933,275.074371 426.566406,270.490143 416.675293,267.078979 
	C403.741638,262.618530 390.402039,260.355957 376.677460,262.666168 
	C369.850128,263.815399 362.877289,264.674164 356.336212,266.793762 
	C349.320526,269.067139 342.351196,272.039062 336.074249,275.872833 
	C330.367157,279.358612 325.322083,284.112366 320.524628,288.852997 
	C315.433105,293.884216 309.928711,298.964996 306.468048,305.078888 
	C299.897919,316.686340 294.930420,328.947632 292.443542,342.435791 
	C290.255768,354.301758 290.639160,365.885620 292.907501,377.199371 
	C294.773315,386.505066 298.625610,395.526917 303.317322,404.120972 
	C309.288330,415.058197 316.896545,424.518677 326.230652,432.522797 
	C330.973145,436.589600 336.402557,440.108215 342.029022,442.822449 
	C348.033691,445.719086 354.819824,446.963379 360.931671,449.678802 
	C368.264679,452.936859 376.079834,451.953796 383.625763,453.085236 
	C388.102844,453.756531 392.881836,452.449890 397.521179,451.992889 
	C402.161377,451.535828 407.151154,451.959869 411.362152,450.355621 
	C420.846222,446.742645 430.463257,442.962494 439.069305,437.688843 
	C450.318054,430.795837 459.224609,420.985992 466.982483,409.374756 
z" data-index="2" style="opacity: 1;"></path>
<path fill="#000000" opacity="1.000000" stroke="none" d="
M135.969696,36.762909 
	C134.594955,36.812820 133.220230,36.862732 131.433777,36.616894 
	C131.022064,36.321140 130.938232,35.872791 130.938232,35.872791 
	C130.959427,24.560966 130.980606,13.249140 131.000900,1.468657 
	C194.354233,1.000000 257.708466,1.000000 321.531342,1.000000 
	C322.000000,12.526499 322.000000,24.052998 322.000000,36.937977 
	C311.511505,36.937977 301.221863,36.937977 290.374023,36.723076 
	C289.540222,36.606014 289.264618,36.703857 288.988983,36.801697 
	C285.296173,36.843651 281.603394,36.885605 277.298279,36.666588 
	C276.121124,36.536682 275.556244,36.667744 274.991394,36.798801 
	C259.971741,36.842548 244.952072,36.886295 229.374329,36.715378 
	C228.540344,36.600834 228.264420,36.700951 227.988510,36.801071 
	C224.960052,36.845043 221.931610,36.889015 218.360504,36.717514 
	C217.541504,36.597912 217.265137,36.693779 216.988770,36.789650 
	C211.642792,36.832184 206.296814,36.874714 200.503082,36.629200 
	C200.055328,36.341156 199.956238,35.910896 199.771484,35.516922 
	C179.224625,35.082088 158.862488,35.030407 138.500381,35.039612 
	C137.679077,35.039982 136.858032,35.616150 135.983765,36.130852 
	C135.930649,36.337658 135.969696,36.762909 135.969696,36.762909 
z" data-index="3" style="opacity: 0; visibility: visible; fill: rgb(121, 40, 202);"></path>
<path fill="#010001" opacity="1.000000" stroke="none" d="
M96.531342,1.000000 
	C97.000000,12.794415 97.000000,24.588829 97.000000,36.398373 
	C94.088821,36.550560 90.474014,36.739529 86.457970,36.634792 
	C86.056732,36.341084 85.944420,35.896500 85.757568,35.504951 
	C73.869316,35.076061 62.167873,35.019840 50.466579,35.042252 
	C49.653416,35.043808 48.841370,35.629768 47.953625,36.133621 
	C47.878445,36.323280 47.954113,36.724228 47.954113,36.724228 
	C42.270630,34.855694 37.054146,37.129684 32.068806,39.097713 
	C19.182268,44.184853 10.619575,53.944801 4.517828,66.099007 
	C3.580478,67.966141 2.534343,69.778664 1.269260,71.308220 
	C1.000000,47.728317 1.000000,24.456636 1.000000,1.000000 
	C32.687321,1.000000 64.375000,1.000000 96.531342,1.000000 
z" data-index="4" style="opacity: 0; visibility: visible; fill: rgb(121, 40, 202);"></path>
<path fill="#010101" opacity="1.000000" stroke="none" d="
M411.468658,486.000000 
	C411.922180,485.245667 412.729156,484.134827 413.784882,483.793701 
	C421.912231,481.167572 430.456665,479.502930 438.171997,475.999176 
	C454.424042,468.618683 468.990143,458.671600 480.903778,445.030701 
	C486.158478,439.014160 491.620331,433.380737 495.136841,425.986816 
	C498.075836,419.807251 502.649323,414.399261 505.529755,408.199310 
	C508.160217,402.537537 509.454742,396.259949 511.409454,390.277100 
	C512.278809,387.616150 513.323669,385.012482 514.644409,382.691406 
	C515.000000,417.260620 515.000000,451.521240 515.000000,486.000000 
	C480.646088,486.000000 446.291687,486.000000 411.468658,486.000000 
z" data-index="5" style="opacity: 0; visibility: visible; fill: rgb(121, 40, 202);"></path>
<path fill="#000000" opacity="1.000000" stroke="none" d="
M0.999999,400.250000 
	C1.464799,400.277222 1.929600,400.554443 2.394397,400.831665 
	C2.061216,401.075684 1.728040,401.319702 1.197431,401.281860 
	C1.000000,401.000000 1.000000,400.500000 0.999999,400.250000 
z" data-index="6"></path>
<path fill="#181415" opacity="1.000000" stroke="none" d="
M1.000001,170.333328 
	C1.256483,170.713379 1.512963,171.426743 1.384722,172.070068 
	C1.000000,171.555557 1.000000,171.111099 1.000001,170.333328 
z" data-index="7"></path>
<path fill="#010101" opacity="1.000000" stroke="none" d="
M515.000000,378.750000 
	C514.565430,379.063446 514.130859,379.126892 513.696289,379.190338 
	C513.906738,378.806549 514.117188,378.422791 514.663818,378.019531 
	C515.000000,378.000000 515.000000,378.500000 515.000000,378.750000 
z" data-index="8"></path>
<path fill="#181415" opacity="1.000000" stroke="none" d="
M1.000000,184.250000 
	C1.235097,184.393555 1.470193,184.787109 1.352645,185.090332 
	C1.000000,185.000000 1.000000,184.500000 1.000000,184.250000 
z" data-index="9"></path>
<path fill="#181415" opacity="1.000000" stroke="none" d="
M0.999999,179.250000 
	C1.235116,179.393570 1.470235,179.787140 1.352677,180.090363 
	C1.000000,180.000000 1.000000,179.500000 0.999999,179.250000 
z" data-index="10"></path>
<path fill="#181415" opacity="1.000000" stroke="none" d="
M1.000000,165.250000 
	C1.202462,165.415222 1.404922,165.830460 1.303691,166.122833 
	C1.000000,166.000000 1.000000,165.500000 1.000000,165.250000 
z" data-index="11"></path>
<path fill="#FDFDFE" opacity="1.000000" stroke="none" d="
M147.000000,358.002441 
	C126.682961,358.002441 106.865173,357.911224 87.049446,358.072784 
	C82.636505,358.108734 80.710732,356.897949 80.908394,352.137421 
	C81.236115,344.244720 80.985809,336.328491 81.004539,328.422241 
	C81.011414,325.522888 82.200577,324.105652 85.416267,324.111908 
	C110.216949,324.160309 135.017883,324.057922 159.818771,324.030518 
	C169.313171,324.020050 178.813400,324.288727 188.299576,324.023438 
	C192.831619,323.896698 194.507095,325.567139 194.439911,329.955475 
	C194.303177,338.887939 194.399017,347.823975 194.399017,358.002441 
	C178.786270,358.002441 163.143127,358.002441 147.000000,358.002441 
z" data-index="12"></path>
<path fill="#FDFDFD" opacity="1.000000" stroke="none" d="
M82.045227,275.996948 
	C81.695602,273.907562 81.028755,271.814270 81.054344,269.729492 
	C81.139771,262.770325 81.554001,255.815567 81.674789,248.856201 
	C81.728508,245.760666 82.496483,244.044312 86.119438,244.059875 
	C120.059631,244.205856 154.000381,244.226212 187.940964,244.273865 
	C193.252808,244.281311 194.513641,245.671722 194.433502,251.102905 
	C194.337692,257.595947 194.311844,264.092468 194.407196,270.585266 
	C194.502274,277.058685 193.063889,277.567383 187.518051,277.543427 
	C153.047882,277.394531 118.576599,277.498810 83.711357,277.229675 
	C82.893097,276.625854 82.469162,276.311401 82.045227,275.996948 
z" data-index="13"></path>
<path fill="#767575" opacity="1.000000" stroke="none" d="
M81.690781,276.077240 
	C82.469162,276.311401 82.893097,276.625854 83.321732,277.246582 
	C82.663063,277.087738 81.999695,276.622650 81.690781,276.077240 
z" data-index="14"></path>
<path fill="#767575" opacity="1.000000" stroke="none" d="
M194.458252,277.491974 
	C194.477859,277.508423 194.438660,277.475525 194.458252,277.491974 
z" data-index="15"></path>
<path fill="#000001" opacity="1.000000" stroke="none" d="
M366.027313,70.000961 
	C373.354614,70.000778 380.187622,70.054565 387.019318,69.983673 
	C392.685425,69.924889 398.329956,73.434410 400.134491,78.989761 
	C401.369415,82.791527 402.404297,86.859367 402.437683,90.817467 
	C402.644257,115.302284 402.541534,139.789719 402.541534,164.499054 
	C280.277130,164.499054 157.995697,164.499054 35.000965,164.499054 
	C35.000965,163.191971 35.003654,161.445084 35.000565,159.698212 
	C34.954586,133.705002 34.924278,107.711754 34.846596,81.718643 
	C34.832069,76.856720 40.683056,70.102425 45.645653,70.060600 
	C62.606140,69.917633 79.568573,70.005814 96.999039,70.005814 
	C96.999039,83.095352 96.998177,95.871857 96.999336,108.648361 
	C97.000114,117.222672 97.001350,117.239555 105.643257,117.263054 
	C113.914993,117.285553 122.186836,117.267914 130.723419,117.267914 
	C130.723419,101.264587 130.723419,85.983414 130.723419,70.351791 
	C194.530090,70.351791 258.059662,70.351791 321.999084,70.351791 
	C321.999084,84.166206 322.160370,97.953552 321.904755,111.733170 
	C321.823853,116.095421 323.100891,117.512253 327.507477,117.365471 
	C336.782257,117.056549 346.074524,117.271591 355.790314,117.271591 
	C355.790314,101.331390 355.790314,85.933586 355.790314,70.000961 
	C359.312042,70.000961 362.422241,70.000961 366.027313,70.000961 
z" data-index="16" style="opacity: 0; visibility: visible; fill: rgb(121, 40, 202);"></path>
<path fill="#1B1B1E" opacity="1.000000" stroke="none" d="
M199.956238,35.910896 
	C199.956238,35.910896 200.055328,36.341156 200.041656,36.561493 
	C178.982834,36.841255 157.937714,36.900684 136.431137,36.861511 
	C135.969696,36.762909 135.930649,36.337658 136.448318,36.173729 
	C157.962738,35.976837 178.959488,35.943867 199.956238,35.910896 
z" data-index="17"></path>
<path fill="#242428" opacity="1.000000" stroke="none" d="
M85.944420,35.896500 
	C85.944420,35.896500 86.056732,36.341084 86.045525,36.570084 
	C73.647110,36.850441 61.259895,36.901794 48.413399,36.838684 
	C47.954113,36.724228 47.878445,36.323280 48.419319,36.167870 
	C61.288273,35.973804 73.616348,35.935150 85.944420,35.896500 
z" data-index="18"></path>
<path fill="#1B1B1E" opacity="1.000000" stroke="none" d="
M275.321411,36.892097 
	C275.556244,36.667744 276.121124,36.536682 276.841553,36.601578 
	C276.548553,36.860153 276.099976,36.922771 275.321411,36.892097 
z" data-index="19"></path>
<path fill="#1B1B1E" opacity="1.000000" stroke="none" d="
M130.677277,35.967087 
	C130.938232,35.872791 131.022064,36.321140 131.025772,36.549168 
	C130.825104,36.538593 130.620712,36.299988 130.677277,35.967087 
z" data-index="20"></path>
<path fill="#1B1B1E" opacity="1.000000" stroke="none" d="
M217.241577,36.879372 
	C217.265137,36.693779 217.541504,36.597912 217.910889,36.651619 
	C217.834045,36.857159 217.664215,36.913128 217.241577,36.879372 
z" data-index="21"></path>
<path fill="#1B1B1E" opacity="1.000000" stroke="none" d="
M289.242371,36.887344 
	C289.264618,36.703857 289.540222,36.606014 289.909821,36.656761 
	C289.834442,36.861237 289.665131,36.917114 289.242371,36.887344 
z" data-index="22"></path>
<path fill="#1B1B1E" opacity="1.000000" stroke="none" d="
M228.242477,36.885479 
	C228.264420,36.700951 228.540344,36.600834 228.910004,36.649925 
	C228.834656,36.856056 228.665558,36.912971 228.242477,36.885479 
z" data-index="23"></path>
<path fill="#000000" opacity="1.000000" stroke="none" d="
M466.893066,409.742981 
	C459.224609,420.985992 450.318054,430.795837 439.069305,437.688843 
	C430.463257,442.962494 420.846222,446.742645 411.362152,450.355621 
	C407.151154,451.959869 402.161377,451.535828 397.521179,451.992889 
	C392.881836,452.449890 388.102844,453.756531 383.625763,453.085236 
	C376.079834,451.953796 368.264679,452.936859 360.931671,449.678802 
	C354.819824,446.963379 348.033691,445.719086 342.029022,442.822449 
	C336.402557,440.108215 330.973145,436.589600 326.230652,432.522797 
	C316.896545,424.518677 309.288330,415.058197 303.317322,404.120972 
	C298.625610,395.526917 294.773315,386.505066 292.907501,377.199371 
	C290.639160,365.885620 290.255768,354.301758 292.443542,342.435791 
	C294.930420,328.947632 299.897919,316.686340 306.468048,305.078888 
	C309.928711,298.964996 315.433105,293.884216 320.524628,288.852997 
	C325.322083,284.112366 330.367157,279.358612 336.074249,275.872833 
	C342.351196,272.039062 349.320526,269.067139 356.336212,266.793762 
	C362.877289,264.674164 369.850128,263.815399 376.677460,262.666168 
	C390.402039,260.355957 403.741638,262.618530 416.675293,267.078979 
	C426.566406,270.490143 435.912933,275.074371 444.444855,281.401093 
	C451.306641,286.489380 457.202026,292.264465 461.798035,299.418579 
	C465.203613,304.719696 469.196442,309.737122 471.897675,315.374451 
	C475.631989,323.167908 479.639435,330.959320 480.093292,339.986145 
	C480.411499,346.315643 482.259857,352.634827 482.032532,358.908203 
	C481.746948,366.789948 480.707306,374.789215 478.773804,382.429199 
	C476.435272,391.669800 473.214264,400.767578 467.024475,408.391632 
	C466.858521,408.595978 466.989807,409.041626 466.893066,409.742981 
M451.827698,353.530487 
	C451.832123,351.198883 451.595856,348.836243 451.891846,346.542267 
	C452.479248,341.989502 450.406555,340.796661 446.203400,340.930878 
	C438.716217,341.170044 431.215912,340.998108 423.721100,340.998108 
	C417.121857,340.998108 410.522644,340.998138 403.784821,340.998138 
	C403.784821,325.065186 403.784821,309.771545 403.784821,293.739258 
	C392.470734,293.739258 381.358429,293.739258 369.998138,293.739258 
	C369.998138,300.196930 369.998108,306.835449 369.998108,313.473969 
	C369.998108,331.794617 369.944397,350.115692 370.091614,368.435150 
	C370.104553,370.046509 371.202820,372.862396 372.188965,373.049164 
	C377.307648,374.018555 382.543030,374.521271 387.758209,374.791107 
	C393.231201,375.074219 398.734802,375.107544 404.212067,374.903351 
	C420.072113,374.312012 436.043732,376.446533 451.846191,373.660522 
	C451.846191,366.842438 451.846191,360.680847 451.827698,353.530487 
z" data-index="24" style="opacity: 0; visibility: visible; fill: rgb(121, 40, 202);"></path>
<path fill="#FFFFFF" opacity="1.000000" stroke="none" d="
M199.771484,35.516922 
	C178.959488,35.943867 157.962738,35.976837 136.501434,35.966923 
	C136.858032,35.616150 137.679077,35.039982 138.500381,35.039612 
	C158.862488,35.030407 179.224625,35.082088 199.771484,35.516922 
z" data-index="25"></path>
<path fill="#FFFFFF" opacity="1.000000" stroke="none" d="
M85.757568,35.504951 
	C73.616348,35.935150 61.288273,35.973804 48.494499,35.978210 
	C48.841370,35.629768 49.653416,35.043808 50.466579,35.042252 
	C62.167873,35.019840 73.869316,35.076061 85.757568,35.504951 
z" data-index="26"></path>
<path fill="#FEFEFE" opacity="1.000000" stroke="none" d="
M451.836945,354.024872 
	C451.846191,360.680847 451.846191,366.842438 451.846191,373.660522 
	C436.043732,376.446533 420.072113,374.312012 404.212067,374.903351 
	C398.734802,375.107544 393.231201,375.074219 387.758209,374.791107 
	C382.543030,374.521271 377.307648,374.018555 372.188965,373.049164 
	C371.202820,372.862396 370.104553,370.046509 370.091614,368.435150 
	C369.944397,350.115692 369.998108,331.794617 369.998108,313.473969 
	C369.998108,306.835449 369.998138,300.196930 369.998138,293.739258 
	C381.358429,293.739258 392.470734,293.739258 403.784821,293.739258 
	C403.784821,309.771545 403.784821,325.065186 403.784821,340.998138 
	C410.522644,340.998138 417.121857,340.998108 423.721100,340.998108 
	C431.215912,340.998108 438.716217,341.170044 446.203400,340.930878 
	C450.406555,340.796661 452.479248,341.989502 451.891846,346.542267 
	C451.595856,348.836243 451.832123,351.198883 451.836945,354.024872 
z" data-index="27" style="opacity: 1;"></path>
</svg>